<svg width="69" height="69" viewBox="0 0 69 69" fill="none" xmlns="http://www.w3.org/2000/svg">
<path d="M34.5 0.954285C12.7748 0.954285 0.5 13.2291 0.5 34.9543C0.5 56.6796 12.7748 68.9543 34.5 68.9543V49.1844C25.3754 49.1844 20.27 43.9703 20.27 34.9543C20.27 25.8297 25.484 20.7243 34.5 20.7243C43.6246 20.7243 48.73 25.9384 48.73 34.9543H68.5C68.5 13.2291 56.2252 0.954285 34.5 0.954285Z" fill="#0061FE"/>
<path d="M34.5 20.7241V34.9542H20.27C20.27 44.0788 25.4841 49.1842 34.5 49.1842C43.6246 49.1842 48.7301 43.9701 48.7301 34.9542C48.7301 25.8296 43.6246 20.7241 34.5 20.7241Z" fill="#1E1919"/>
</svg>
