<svg width="69" height="61" viewBox="0 0 69 61" fill="none" xmlns="http://www.w3.org/2000/svg">
<path d="M22.4912 30.9543C22.4912 38.0174 26.1664 42.2672 32.6788 42.9615V60.9543H0.5V43.0573C8.2095 43.0573 12.603 38.6758 12.603 30.9543C12.603 23.2448 8.2095 18.8514 0.5 18.8514V0.954346H32.6788V18.9591C26.1664 19.6295 22.4912 23.9033 22.4912 30.9543Z" fill="#1E1919"/>
<path d="M56.5851 30.9543C56.5851 38.6758 60.9786 43.0573 68.688 43.0573V60.9543H36.5093V42.9496C43.0216 42.2672 46.6968 38.0054 46.6968 30.9424C46.6968 23.8913 43.0216 19.6295 36.5093 18.9472V0.954346H68.688V18.8514C60.9786 18.8514 56.5851 23.2448 56.5851 30.9543Z" fill="#0061FE"/>
</svg>
